<svg xmlns:mydata="http://www.w3.org/2000/svg" mydata:contrastcolor="D7C6E6" mydata:template="BlackAndHighlightColorHex2" mydata:presentation="2.5" mydata:layoutType="undefined" mydata:specialFontId="undefined" mydata:id1="411" mydata:id2="232" mydata:companyName="Juan Nava" mydata:companyTagline="" version="1.1" xmlns="http://www.w3.org/2000/svg" xmlns:xlink="http://www.w3.org/1999/xlink" width="550" height="940"><g fill="none" fill-rule="none" stroke="none" stroke-width="1" stroke-linecap="butt" stroke-linejoin="miter" stroke-miterlimit="10" stroke-dasharray="" stroke-dashoffset="0" font-family="none" font-weight="none" font-size="none" text-anchor="none" style="mix-blend-mode: normal"><g data-paper-data="{&quot;isGlobalGroup&quot;:true}"><g data-paper-data="{&quot;stacked&quot;:true,&quot;isPrimaryText&quot;:true}" fill-rule="nonzero"><path d="M257.86832,185.33677c-1.01697,0 -1.84234,0.82537 -1.84234,1.84234v22.4508c0,11.36357 -9.24488,20.61214 -20.60845,20.61214h-1.71338c-11.36357,0 -20.60846,-9.24856 -20.60846,-20.61214c0,-1.01697 -0.82537,-1.84234 -1.84234,-1.84234h-11.05406c-1.01697,0 -1.84234,0.82537 -1.84234,1.84234c0,13.39752 10.8993,24.29683 24.29314,24.29683c0.00368,0 12.8006,0 12.8006,0c13.38278,-0.01842 24.25998,-10.91036 24.25998,-24.29314v-22.45448c0,-1.02066 -0.82537,-1.84234 -1.84234,-1.84234z" data-paper-data="{&quot;glyphName&quot;:&quot;J&quot;,&quot;glyphIndex&quot;:0,&quot;firstGlyphOfWord&quot;:true,&quot;word&quot;:1,&quot;line&quot;:1,&quot;firstGlyphOfFirstLine&quot;:true}" fill="#000000"></path><path d="M324.4784,185.31466c-1.01697,0 -1.84234,0.82537 -1.84234,1.84234v22.46554c0,11.35621 -9.2412,20.5974 -20.5974,20.5974c-11.35621,0 -20.5974,-9.2412 -20.5974,-20.5974v-22.46554c0,-1.01697 -0.82537,-1.84234 -1.84234,-1.84234h-11.07617c-1.01697,0 -1.84234,0.82537 -1.84234,1.84234v22.46554c0,13.39015 10.89562,24.28209 24.28209,24.28209h11.07617c13.39015,0 24.28209,-10.89194 24.28209,-24.28209v-22.46554c0,-1.01697 -0.82537,-1.84234 -1.84234,-1.84234z" data-paper-data="{&quot;glyphName&quot;:&quot;U&quot;,&quot;glyphIndex&quot;:1,&quot;word&quot;:1,&quot;line&quot;:1}" fill="#000000"></path><path d="M410.12884,231.03057l-31.22404,-44.9016c-0.15107,-0.21371 -0.33899,-0.38321 -0.54902,-0.51586c-0.02211,-0.01474 -0.0479,-0.01474 -0.07369,-0.02948c-0.23951,-0.13265 -0.50112,-0.19897 -0.77378,-0.2174c-0.04053,-0.00368 -0.07369,-0.03316 -0.11791,-0.03316h-11.05406c-0.60429,0 -1.16805,0.29478 -1.51441,0.79221l-31.22404,44.90528c-0.39058,0.56007 -0.43848,1.29701 -0.12159,1.90498c0.31688,0.60797 0.94696,0.99118 1.63232,0.99118h11.05406c0.60429,0 1.16805,-0.29478 1.51441,-0.79221l29.70963,-42.72763l29.70963,42.72763c0.35741,0.51586 0.93222,0.79221 1.51441,0.79221c0.36478,0 0.72957,-0.10686 1.05014,-0.33162c0.84011,-0.58218 1.05014,-1.72812 0.46795,-2.56454z" data-paper-data="{&quot;glyphName&quot;:&quot;A&quot;,&quot;glyphIndex&quot;:2,&quot;word&quot;:1,&quot;line&quot;:1}" fill="#000000"></path><path d="M475.65897,185.31834c-1.01697,0 -1.84234,0.82537 -1.84234,1.84234v40.48366l-42.19704,-41.79541c-0.04422,-0.04422 -0.10317,-0.05896 -0.15107,-0.09949c-0.14002,-0.11423 -0.28004,-0.22477 -0.44953,-0.29478c-0.18055,-0.07369 -0.36847,-0.09949 -0.56007,-0.11423c-0.0479,-0.00368 -0.09212,-0.02948 -0.14002,-0.02948h-11.05406c-1.01697,0 -1.84234,0.82537 -1.84234,1.84234v44.90528c0,1.01697 0.82537,1.84234 1.84234,1.84234h11.05406c1.01697,0 1.84234,-0.82537 1.84234,-1.84234v-40.47997l42.19335,41.79541c0.05159,0.05159 0.11791,0.07001 0.1695,0.11422c0.13265,0.10686 0.2653,0.21371 0.42374,0.28004c0.22477,0.09212 0.46427,0.14002 0.70378,0.14002c0.23951,0 0.47901,-0.0479 0.70378,-0.1437c0.22845,-0.0958 0.43111,-0.23214 0.6006,-0.40163h0.00368c0.02579,-0.02579 0.03685,-0.06264 0.06264,-0.09212c0.13265,-0.15107 0.25424,-0.3132 0.33162,-0.5048c0.07369,-0.18055 0.09949,-0.37584 0.11423,-0.56744c0.00368,-0.04422 0.02579,-0.08475 0.02579,-0.12896v-44.90897c0.00737,-1.02066 -0.818,-1.84234 -1.83498,-1.84234z" data-paper-data="{&quot;glyphName&quot;:&quot;N&quot;,&quot;glyphIndex&quot;:3,&quot;lastGlyphOfWord&quot;:true,&quot;word&quot;:1,&quot;line&quot;:1,&quot;lastGlyphOfFirstLine&quot;:true}" fill="#000000"></path><path d="M250.36388,241.28026c-0.90819,0 -1.64527,0.73708 -1.64527,1.64527v36.15313l-37.68323,-37.32456c-0.03949,-0.03949 -0.09214,-0.05265 -0.13491,-0.08884c-0.12504,-0.10201 -0.25008,-0.20072 -0.40145,-0.26324c-0.16124,-0.06581 -0.32905,-0.08884 -0.50016,-0.10201c-0.04278,-0.00329 -0.08226,-0.02632 -0.12504,-0.02632h-9.87161c-0.90819,0 -1.64527,0.73708 -1.64527,1.64527v40.10178c0,0.90819 0.73708,1.64527 1.64527,1.64527h9.87161c0.90819,0 1.64527,-0.73708 1.64527,-1.64527v-36.14984l37.67994,37.32456c0.04607,0.04607 0.1053,0.06252 0.15136,0.10201c0.11846,0.09543 0.23692,0.19085 0.37841,0.25008c0.20072,0.08226 0.41461,0.12504 0.62849,0.12504c0.21389,0 0.42777,-0.04278 0.62849,-0.12833c0.20401,-0.08555 0.38499,-0.2073 0.53636,-0.35867h0.00329c0.02303,-0.02303 0.03291,-0.05594 0.05594,-0.08226c0.11846,-0.13491 0.22705,-0.2797 0.29615,-0.4508c0.06581,-0.16124 0.08884,-0.33564 0.10201,-0.50674c0.00329,-0.03949 0.02303,-0.07568 0.02303,-0.11517v-40.10507c0.00658,-0.91148 -0.7305,-1.64527 -1.63869,-1.64527z" data-paper-data="{&quot;glyphName&quot;:&quot;N&quot;,&quot;glyphIndex&quot;:4,&quot;firstGlyphOfWord&quot;:true,&quot;word&quot;:2,&quot;line&quot;:2,&quot;firstGlyphOfSecondLine&quot;:true}" fill="#0057b8"></path><path d="M326.89479,282.10266l-27.88401,-40.09848c-0.13491,-0.19085 -0.30273,-0.34222 -0.49029,-0.46067c-0.01974,-0.01316 -0.04278,-0.01316 -0.06581,-0.02632c-0.21389,-0.11846 -0.44751,-0.17769 -0.69101,-0.19414c-0.0362,-0.00329 -0.06581,-0.02961 -0.1053,-0.02961h-9.87161c-0.53965,0 -1.0431,0.26324 -1.35241,0.70747l-27.88401,40.10178c-0.3488,0.50016 -0.39157,1.15827 -0.10859,1.70121c0.28299,0.54294 0.84567,0.88515 1.45771,0.88515h9.87161c0.53965,0 1.0431,-0.26324 1.35241,-0.70747l26.5316,-38.15707l26.5316,38.15707c0.31918,0.46067 0.83251,0.70747 1.35241,0.70747c0.32576,0 0.65153,-0.09543 0.9378,-0.29615c0.75024,-0.5199 0.9378,-1.54326 0.4179,-2.29021z" data-paper-data="{&quot;glyphName&quot;:&quot;A&quot;,&quot;glyphIndex&quot;:5,&quot;word&quot;:2,&quot;line&quot;:2}" fill="#0057b8"></path><path d="M401.62941,241.57312c-0.75353,-0.5199 -1.7736,-0.33893 -2.29021,0.41132l-26.5316,38.15707l-26.5316,-38.15707c-0.30931,-0.44422 -0.81276,-0.70747 -1.35241,-0.70747h-9.87161c-0.61204,0 -1.17472,0.34222 -1.45771,0.88515c-0.28299,0.54294 -0.24021,1.19775 0.10859,1.70121l27.88401,40.10178c0.30931,0.44422 0.81276,0.70747 1.35241,0.70747h9.87161c0.00329,0 0.00658,-0.00329 0.00987,-0.00329c0.27641,-0.00329 0.54294,-0.08226 0.78644,-0.22047c0.08884,-0.04936 0.14807,-0.13162 0.22376,-0.19743c0.11188,-0.09214 0.24021,-0.16124 0.32905,-0.28628l27.88401,-40.10178c0.51661,-0.74695 0.33234,-1.7736 -0.41461,-2.29021z" data-paper-data="{&quot;glyphName&quot;:&quot;V&quot;,&quot;glyphIndex&quot;:6,&quot;word&quot;:2,&quot;line&quot;:2}" fill="#0057b8"></path><path d="M477.19983,282.10266l-27.88401,-40.09848c-0.13491,-0.19085 -0.30273,-0.34222 -0.49029,-0.46067c-0.01974,-0.01316 -0.04278,-0.01316 -0.06581,-0.02632c-0.21389,-0.11846 -0.44751,-0.17769 -0.69101,-0.19414c-0.0362,-0.00329 -0.06581,-0.02961 -0.1053,-0.02961h-9.87161c-0.53965,0 -1.0431,0.26324 -1.35241,0.70747l-27.88401,40.10178c-0.3488,0.50016 -0.39157,1.15827 -0.10859,1.70121c0.28299,0.54294 0.84567,0.88515 1.45771,0.88515h9.87161c0.53965,0 1.0431,-0.26324 1.35241,-0.70747l26.5316,-38.15707l26.5316,38.15707c0.31918,0.46067 0.83251,0.70747 1.35241,0.70747c0.32576,0 0.65153,-0.09543 0.9378,-0.29615c0.75024,-0.5199 0.9378,-1.54326 0.4179,-2.29021z" data-paper-data="{&quot;glyphName&quot;:&quot;A&quot;,&quot;glyphIndex&quot;:7,&quot;lastGlyphOfWord&quot;:true,&quot;word&quot;:2,&quot;line&quot;:2,&quot;lastGlyphOfSecondLine&quot;:true}" fill="#0057b8"></path></g><g data-paper-data="{&quot;fillRule&quot;:&quot;evenodd&quot;,&quot;isIcon&quot;:true,&quot;iconStyle&quot;:&quot;standalone&quot;,&quot;selectedEffects&quot;:{&quot;container&quot;:&quot;&quot;,&quot;transformation&quot;:&quot;&quot;,&quot;pattern&quot;:&quot;&quot;},&quot;bounds&quot;:{&quot;x&quot;:72.5060033744954,&quot;y&quot;:192.7643279139669,&quot;width&quot;:101.90912699164656,&quot;height&quot;:84.47134417206627},&quot;iconType&quot;:&quot;icon&quot;,&quot;rawIconId&quot;:&quot;871427&quot;}" fill="#0057b8" fill-rule="evenodd"><path d="M80.8852,192.76433l-8.37919,8.37919l29.55365,29.55365l-29.55365,29.55365l8.37919,8.37919l29.55365,-29.55365l8.49243,-8.37919l-8.49243,-8.37919zM174.41513,264.10072v13.13496h-52.31335v-13.13496z" data-paper-data="{&quot;isPathIcon&quot;:true}"></path></g></g></g></svg>