<svg xmlns:mydata="http://www.w3.org/2000/svg" mydata:contrastcolor="FFA06A" mydata:template="BlackAndHighlightColorHex1" mydata:presentation="2.5" mydata:layoutType="undefined" mydata:specialFontId="undefined" mydata:id1="757" mydata:id2="100" mydata:companyName="Juan Nava" mydata:companyTagline="" version="1.1" xmlns="http://www.w3.org/2000/svg" xmlns:xlink="http://www.w3.org/1999/xlink" width="550" height="940"><g fill="none" fill-rule="none" stroke="none" stroke-width="1" stroke-linecap="butt" stroke-linejoin="miter" stroke-miterlimit="10" stroke-dasharray="" stroke-dashoffset="0" font-family="none" font-weight="none" font-size="none" text-anchor="none" style="mix-blend-mode: normal"><g data-paper-data="{&quot;isGlobalGroup&quot;:true}"><g data-paper-data="{&quot;isSecondaryText&quot;:true}" fill="#af272f" fill-rule="nonzero"><path d="M210.63233,351.01078v-11.05584h2.62149v15.04507h-3.21417l-6.61071,-11.03305v11.03305h-2.62149v-15.04507h3.21417z" data-paper-data="{&quot;glyphName&quot;:&quot;N&quot;,&quot;glyphIndex&quot;:0,&quot;firstGlyphOfWord&quot;:true,&quot;word&quot;:1}"></path><path d="M262.27818,355h-2.84944l-1.70967,-4.37675h-5.67609l-1.5501,4.37675h-2.73547l5.83566,-15.04507h2.25676zM252.77243,348.57165h4.126l-2.16558,-5.53932z" data-paper-data="{&quot;glyphName&quot;:&quot;A&quot;,&quot;glyphIndex&quot;:1,&quot;word&quot;:1}"></path><path d="M290.44931,339.95493h2.84944l4.78707,11.85369l4.33116,-11.85369h2.73547l-6.01803,15.04507h-2.0744z" data-paper-data="{&quot;glyphName&quot;:&quot;V&quot;,&quot;glyphIndex&quot;:2,&quot;word&quot;:1}"></path><path d="M349.19256,355h-2.84944l-1.70967,-4.37675h-5.67609l-1.5501,4.37675h-2.73547l5.83566,-15.04507h2.25676zM339.68681,348.57165h4.126l-2.16558,-5.53932z" data-paper-data="{&quot;glyphName&quot;:&quot;A&quot;,&quot;glyphIndex&quot;:3,&quot;lastGlyphOfWord&quot;:true,&quot;word&quot;:1}"></path></g><g data-paper-data="{&quot;isPrimaryText&quot;:true}" fill="#af272f" fill-rule="nonzero"><path d="M184.64782,328.2095c0.17701,-0.63219 0.51839,-1.17587 1.02414,-1.63104c0.50575,-0.45517 1.07472,-0.73334 1.70691,-0.83449c1.84599,-0.42989 3.26209,-1.47932 4.2483,-3.14829c1.77012,-2.98392 2.65519,-6.65061 2.65519,-11.00006v-13.80697h0.15172c2.57932,0 5.01957,0.58161 7.32073,1.74484c3.4391,2.09886 5.15865,5.09543 5.15865,8.9897v3.22415c0,2.85749 -0.68276,5.32302 -2.04829,7.39659c-2.6299,4.07129 -6.77705,6.78969 -12.44144,8.15521c-2.60461,0.6069 -5.19658,0.91035 -7.7759,0.91035zM179.18572,327.03363c-2.14944,0 -3.9891,-0.76495 -5.51899,-2.29484c-1.52989,-1.52989 -2.29484,-3.36956 -2.29484,-5.51899c0,-2.17472 0.76495,-4.02703 2.29484,-5.55692c1.52989,-1.52989 3.36956,-2.29484 5.51899,-2.29484c2.17472,0 4.02703,0.76495 5.55692,2.29484c1.52989,1.52989 2.29484,3.3822 2.29484,5.55692c0,2.14944 -0.76495,3.9891 -2.29484,5.51899c-1.52989,1.52989 -3.3822,2.29484 -5.55692,2.29484zM206.91345,297.56107c-2.25059,0 -4.3368,-0.39196 -6.25865,-1.17587c-4.2483,-1.71955 -6.37245,-4.96899 -6.37245,-9.74833v-4.47588c0,-1.6184 -0.24023,-3.07243 -0.72069,-4.36209c-0.63219,-1.6184 -1.93449,-2.4276 -3.90692,-2.4276v-1.17587h21.84839v1.17587c-2.023,0 -3.3253,0.83449 -3.90692,2.50346c-0.45517,1.26437 -0.68276,2.66783 -0.68276,4.21037z" data-paper-data="{&quot;glyphName&quot;:&quot;J&quot;,&quot;glyphIndex&quot;:0,&quot;firstGlyphOfWord&quot;:true,&quot;word&quot;:1}"></path><path d="M219.88593,295.96796v-13.8449c0,-1.08736 -0.11379,-2.14311 -0.34138,-3.16726c-0.22759,-1.02414 -0.6638,-1.88392 -1.30863,-2.57932c-0.64483,-0.69541 -1.62472,-1.04311 -2.93967,-1.04311v-1.13794h21.77252l-0.03793,1.13794c-1.31495,0 -2.29484,0.3477 -2.93967,1.04311c-0.64483,0.69541 -1.07472,1.55518 -1.28966,2.57932c-0.21494,1.02414 -0.32242,2.0799 -0.32242,3.16726v2.95864c0,2.45289 -0.56897,4.48221 -1.70691,6.08796c-1.13794,1.60576 -2.66151,2.80691 -4.57071,3.60347c-1.90921,0.79656 -4.01439,1.19483 -6.31555,1.19483zM240.17913,328.2095c-6.37245,0 -11.34776,-1.79541 -14.92594,-5.38623c-3.57818,-3.59082 -5.36727,-8.53453 -5.36727,-14.83111v-0.94828c0,-2.4276 0.56897,-4.44428 1.70691,-6.05003c1.13794,-1.60576 2.66151,-2.80691 4.57071,-3.60347c1.90921,-0.79656 4.01439,-1.19483 6.31555,-1.19483v11.79661c0,12.21386 3.6414,18.32078 10.92419,18.32078c1.92185,0 3.77416,-0.42357 5.55692,-1.2707c1.78277,-0.84713 3.35059,-2.06093 4.70347,-3.6414c1.35288,-1.58047 2.42128,-3.50232 3.20519,-5.76555c0.78391,-2.26323 1.17587,-4.81094 1.17587,-7.64314v-25.8691c0,-0.96092 -0.13908,-1.95346 -0.41724,-2.9776c-0.27816,-1.02414 -0.73966,-1.90921 -1.38449,-2.65519c-0.64483,-0.74598 -1.51093,-1.11897 -2.59829,-1.11897l-1.70691,-0.03793v-1.13794h14.48973v1.13794l-1.32759,0.03793c-1.56782,0.12644 -2.75001,0.90403 -3.54657,2.33277c-0.79656,1.42874 -1.20748,2.90174 -1.23276,4.41899v25.8691c0,6.34716 -1.7638,11.30351 -5.29141,14.86904c-3.5276,3.56554 -8.47763,5.3483 -14.85008,5.3483z" data-paper-data="{&quot;glyphName&quot;:&quot;U&quot;,&quot;glyphIndex&quot;:1,&quot;word&quot;:1}"></path><path d="M318.88643,328.2095h-10.01384c-4.62761,0 -7.8897,-2.30116 -9.78626,-6.90348l-14.14835,-33.645l5.53796,-13.46559h2.3138c10.19086,24.20012 16.84147,40.08066 19.95183,47.64162c0.68276,1.49196 1.69426,2.73737 3.0345,3.73623c1.34024,0.99886 2.37702,1.49828 3.11036,1.49828zM285.77247,317.85427c-1.49196,0 -2.7753,-0.53104 -3.85002,-1.59311c-1.07472,-1.06207 -1.61208,-2.35174 -1.61208,-3.86899c0,-1.49196 0.53736,-2.76898 1.61208,-3.83105c1.07472,-1.06207 2.35806,-1.59311 3.85002,-1.59311c1.51725,0 2.80691,0.53104 3.86899,1.59311c1.06207,1.06207 1.59311,2.33909 1.59311,3.83105c0,1.51725 -0.53104,2.80691 -1.59311,3.86899c-1.06207,1.06207 -2.35174,1.59311 -3.86899,1.59311zM276.93449,328.2095h-12.25179v-1.13794c0.75862,0 1.80806,-0.49943 3.14829,-1.49828c1.34024,-0.99886 2.35174,-2.24426 3.0345,-3.73623l3.0345,-7.35866c0.27816,-0.70805 0.63851,-1.23276 1.08104,-1.57415c0.44253,-0.34138 1.13161,-0.51207 2.06725,-0.51207l-3.90692,9.52074c-0.10115,0.25287 -0.15172,0.51839 -0.15172,0.79656c0,0.42989 0.11379,0.88506 0.34138,1.36552c0.35402,0.8092 0.8661,1.50461 1.53621,2.08622c0.67012,0.58161 1.3592,0.88506 2.06725,0.91035z" data-paper-data="{&quot;glyphName&quot;:&quot;A&quot;,&quot;glyphIndex&quot;:2,&quot;word&quot;:1}"></path><path d="M337.24514,328.2095h-14.56559v-1.13794c1.31495,0 2.37702,-0.08851 3.18622,-0.26552c1.97242,-0.73334 2.95864,-2.88277 2.95864,-6.44831v-38.23468c0,-1.16322 -0.11379,-2.26323 -0.34138,-3.30002c-0.55632,-2.32645 -1.97242,-3.48967 -4.2483,-3.48967v-1.13794h9.48281c2.47817,0 4.64025,0.82184 6.48624,2.46553c1.39081,1.28966 3.13565,3.35059 5.23451,6.18279l6.33452,8.87591c-2.75634,1.94714 -5.56325,2.9207 -8.42073,2.9207c-3.11036,0 -5.79083,-1.45403 -8.04142,-4.36209l-4.21037,-6.14486v36.18639c0,3.56554 0.98621,5.72762 2.95864,6.48624c0.78391,0.17701 1.84599,0.26552 3.18622,0.26552zM350.52107,306.47491c-1.84599,0 -3.35059,-0.78391 -4.51382,-2.35174c-0.65747,-1.0115 -0.98621,-2.06093 -0.98621,-3.14829c0,-1.8207 0.78391,-3.31266 2.35174,-4.47588c1.0115,-0.65747 2.06093,-0.98621 3.14829,-0.98621c1.84599,0 3.33795,0.79656 4.47588,2.38967c0.65747,0.98621 0.98621,2.01036 0.98621,3.07243c0,1.87127 -0.78391,3.37588 -2.35174,4.51382c-1.0115,0.65747 -2.04829,0.98621 -3.11036,0.98621zM377.07293,328.2095h-10.27936c-0.96092,0 -1.9661,-0.25287 -3.01553,-0.75862c-1.04943,-0.50575 -1.94081,-1.07472 -2.67415,-1.70691c-1.28966,-1.2138 -2.90806,-3.11036 -4.8552,-5.68968l-7.01728,-9.78626c2.6299,-1.79541 5.31037,-2.69312 8.04142,-2.69312c3.54025,0 6.49888,1.6184 8.87591,4.8552l4.05864,5.84141v-36.18639c0,-3.54025 -0.97357,-5.70233 -2.9207,-6.48624c-0.8092,-0.17701 -1.88392,-0.26552 -3.22415,-0.26552v-1.13794h14.56559v1.13794c-1.31495,0 -2.37702,0.07586 -3.18622,0.22759c-1.97242,0.78391 -2.95864,2.94599 -2.95864,6.48624v38.23468c0,4.52646 1.52989,6.78969 4.58968,6.78969z" data-paper-data="{&quot;glyphName&quot;:&quot;N&quot;,&quot;glyphIndex&quot;:3,&quot;lastGlyphOfWord&quot;:true,&quot;word&quot;:1}"></path></g><g data-paper-data="{&quot;isIcon&quot;:&quot;true&quot;,&quot;iconType&quot;:&quot;icon&quot;,&quot;rawIconId&quot;:&quot;2056033&quot;,&quot;selectedEffects&quot;:{&quot;container&quot;:&quot;enclosed_circle_outline2&quot;,&quot;transformation&quot;:&quot;&quot;,&quot;pattern&quot;:&quot;&quot;},&quot;fillRule&quot;:&quot;evenodd&quot;,&quot;blockLetter&quot;:&quot;O&quot;,&quot;blockLetterId&quot;:0,&quot;relativeBoundsIconToContainer&quot;:{&quot;top&quot;:-5.665812959682011e-7,&quot;left&quot;:-0.000025148728312299643},&quot;widthRatioIconToContainer&quot;:0.9526624642612689,&quot;heightRatioIconToContainer&quot;:0.9973528430601682,&quot;bounds&quot;:{&quot;x&quot;:209.30746165002108,&quot;y&quot;:115.00000000000001,&quot;width&quot;:131.38507669995784,&quot;height&quot;:131.38407670698524},&quot;iconStyle&quot;:&quot;standalone&quot;}" fill-rule="evenodd"><g data-paper-data="{&quot;isPathIcon&quot;:true}"><path d="M249.42918,120.16296c-7.85928,3.32398 -14.81956,8.01661 -20.88085,14.0779c-2.39098,2.39198 -4.56997,4.92397 -6.53595,7.59595l4.06597,-0.81399c1.36999,-1.68199 2.83398,-3.30198 4.39197,-4.85997c5.81129,-5.81129 12.48391,-10.31026 20.01786,-13.49691c7.79928,-3.29931 15.96989,-4.94897 24.51183,-4.94897c1.62299,0 3.23198,0.06 4.82797,0.179l0.194,-0.224l0.218,-0.233l0.93399,-0.91899l0.237,-0.214l1.00499,-0.83999l0.067,-0.051c-2.46298,-0.277 -4.95797,-0.415 -7.48295,-0.415c-8.90894,0 -17.43288,1.72099 -25.57082,5.16296z" fill-opacity="0.6" fill="#af272f"></path><path d="M305.25679,117.29798c0,-1.17699 -0.94699,-2.12399 -2.12399,-2.12399h-8.44794c-7.52595,0 -13.8479,5.19596 -15.56389,12.20991l-5.14496,-0.23c-19.37786,-0.84499 -36.70774,8.67794 -46.79267,23.54983c-0.99899,-2.27798 -3.12298,-4.01897 -5.78596,-4.35097c-4.01897,-0.512 -7.67895,2.30298 -8.21694,6.32196l-0.64,5.06896c-0.74199,5.63096 1.84299,10.95592 6.22096,13.9759c-0.18,0.99899 -0.307,2.02299 -0.435,3.04698c-0.077,0.71599 -0.154,1.45899 -0.205,2.17598c-0.026,0.256 -0.026,0.511 -0.051,0.76699c-0.026,0.256 -0.026,0.487 -0.026,0.74299c0,0.205 -0.026,0.409 -0.026,0.614c-0.025,0.538 -0.025,1.07499 -0.025,1.63799c0,2.53498 0.461,4.94097 1.27999,7.19395c0.128,0.307 0.23,0.64 0.384,0.94699c0.128,0.307 0.281,0.614 0.409,0.92099c0.154,0.307 0.307,0.615 0.461,0.89599c0.077,0.154 0.154,0.307 0.256,0.435c0.179,0.282 0.333,0.589 0.512,0.87099c0.179,0.281 0.358,0.563 0.563,0.84399c0.205,0.282 0.384,0.538 0.589,0.79399c0.307,0.384 0.64,0.76799 0.97299,1.15199c0.23,0.256 0.46,0.486 0.691,0.71699c3.78797,3.78797 9.00994,6.11796 14.7959,6.11796c11.54392,0 20.91285,-9.36893 20.91285,-20.91385v-5.98996c4.99196,-0.64 9.54793,-3.83997 11.64792,-8.80594l1.99599,-4.70997c1.58699,-3.73697 -0.153,-8.03794 -3.89097,-9.59893c-0.92099,-0.41 -1.89399,-0.589 -2.86698,-0.589c-1.97099,0 -3.86497,0.79299 -5.24696,2.22698c2.94298,-7.24395 9.52193,-12.69691 17.63688,-13.8999c1.74099,6.98795 8.03794,12.15891 15.53789,12.15891h8.44694c1.17799,0 2.12499,-0.94699 2.12499,-2.12399c0,-4.42897 -1.79199,-8.42194 -4.68397,-11.31492c-2.84198,-2.91798 -6.86095,-4.70997 -11.28892,-4.70997c8.85694,0 16.02389,-7.16795 16.02389,-16.02489zM262.09909,134.37286c1.09999,-0.461 2.37998,0.051 2.84098,1.15099c0.41,0.97299 -0.026,2.20198 -0.99799,2.71398l-0.052,0.026c-3.96697,2.07299 -7.67895,4.55597 -10.69992,7.62795c-3.04598,3.04598 -5.42596,6.62995 -6.98795,10.54593c-1.58699,3.94197 -2.40598,8.19194 -2.76498,12.56891c-0.384,4.37697 -0.307,8.85694 -0.128,13.43891c0.103,2.40598 -1.76599,4.42897 -4.17197,4.53097c-2.40598,0.102 -4.42897,-1.76599 -4.53097,-4.17197v-0.359c0.179,-4.70997 0.461,-9.54793 1.27999,-14.3859c0.79299,-4.83797 2.12499,-9.75293 4.37697,-14.2839c1.12699,-2.27798 2.48298,-4.42797 4.04497,-6.42495c1.56099,-1.99699 3.32798,-3.81397 5.22196,-5.42696c3.78797,-3.27698 8.13994,-5.65696 12.56891,-7.55095z" fill="#af272f"></path><path d="M335.52957,155.12172c-3.32398,-7.85994 -8.01694,-14.8199 -14.0779,-20.88085c-4.05897,-4.05897 -8.52094,-7.50395 -13.38591,-10.33493l-0.102,0.285l-0.492,1.21299l-0.134,0.295l-0.362,0.71799c4.55597,2.68298 8.73994,5.93196 12.55391,9.74593c5.81129,5.81063 10.31026,12.48291 13.49691,20.01686c3.29898,7.79995 4.94797,15.97089 4.94797,24.51283c0,2.39298 -0.129,4.75697 -0.388,7.09195l1.94699,5.30896c0.77199,-4.04697 1.15899,-8.18094 1.15899,-12.40091c0,-8.90994 -1.72099,-17.43388 -5.16296,-25.57082z" fill-opacity="0.6" fill="#af272f"></path><path d="M337.45956,203.61538c0.71699,-5.60596 -1.84299,-10.90492 -6.24596,-13.9259c0.179,-0.99799 0.307,-2.02199 0.435,-3.04598c0.077,-0.71599 0.154,-1.45899 0.205,-2.17598c0.026,-0.256 0.026,-0.512 0.051,-0.76799c0.026,-0.256 0.026,-0.486 0.026,-0.74199c0,-0.205 0.025,-0.409 0.025,-0.614c0.026,-0.538 0.026,-1.07499 0.026,-1.63899c0,-2.53398 -0.461,-4.93997 -1.27999,-7.19295c-0.128,-0.307 -0.23,-0.64 -0.384,-0.94699c-0.128,-0.307 -0.256,-0.614 -0.41,-0.92099c-0.153,-0.307 -0.307,-0.615 -0.46,-0.89599c-0.077,-0.154 -0.154,-0.307 -0.256,-0.435c-0.179,-0.282 -0.333,-0.589 -0.512,-0.87099c-0.179,-0.281 -0.359,-0.563 -0.563,-0.84399c-0.205,-0.282 -0.384,-0.538 -0.589,-0.79399c-0.307,-0.384 -0.64,-0.76799 -0.97299,-1.15199c-0.23,-0.256 -0.461,-0.486 -0.691,-0.71699c-3.78897,-3.78797 -9.01094,-6.11796 -14.7959,-6.11796c-11.54492,0 -20.91385,9.36893 -20.91385,20.91385v5.98996c-4.99096,0.64 -9.54793,3.83997 -11.64692,8.80594l-1.99699,4.70997c-1.58699,3.73697 0.154,8.03794 3.89097,9.59893c0.92199,0.384 1.89499,0.589 2.86698,0.589c1.97099,0 3.89097,-0.79299 5.24796,-2.22698c-2.94398,7.24395 -9.52293,12.69691 -17.63688,13.8999c-1.74099,-6.98795 -8.03794,-12.15891 -15.53789,-12.15891h-8.44794c-1.17699,0 -2.12399,0.94699 -2.12399,2.12399c0,4.42897 1.79099,8.42194 4.68397,11.31492c2.89298,2.89198 6.91195,4.68397 11.31392,4.68397c-8.85694,0 -16.02389,7.16795 -16.02389,16.02489c0,1.17699 0.94699,2.12499 2.12499,2.12499h8.44694c7.52595,0 13.8489,-5.19696 15.56389,-12.21091l5.11896,0.231c19.37786,0.84399 36.73374,-8.67794 46.79367,-23.57683c0.99799,2.27898 3.12298,4.01897 5.78496,4.35197c4.01897,0.512 7.67995,-2.30398 8.21694,-6.32296zM287.92691,227.03721c-1.09999,0.461 -2.37998,-0.051 -2.84098,-1.15199c-0.461,-1.04899 0,-2.25198 0.97299,-2.76398l0.051,-0.026c3.96797,-2.07299 7.67895,-4.55597 10.69992,-7.62795c3.04598,-3.04598 5.42696,-6.62995 6.98795,-10.54693c1.58699,-3.94197 2.40598,-8.19094 2.76498,-12.56791c0.384,-4.37797 0.307,-8.85694 0.128,-13.43891c-0.103,-2.40698 1.79199,-4.42897 4.17197,-4.53097c2.40698,-0.103 4.42897,1.76599 4.53097,4.17197c0.026,0.179 0.026,0.282 0.026,0.41c-0.179,4.70997 -0.461,9.54793 -1.27999,14.3859c-0.79399,4.83797 -2.12499,9.75293 -4.37697,14.2839c-1.12699,2.27798 -2.48298,4.42797 -4.04497,6.42495c-1.56099,1.99699 -3.32798,3.81397 -5.22196,5.42696c-3.78897,3.27598 -8.13994,5.65696 -12.56891,7.55095z" fill="#af272f"></path><path d="M214.47043,206.26236c3.32498,7.85994 8.01694,14.8199 14.0779,20.88085c4.03697,4.03697 8.47194,7.46695 13.30691,10.28893l0.68,-2.75498c-4.36597,-2.62698 -8.38794,-5.77796 -12.06492,-9.45493c-5.81129,-5.81129 -10.31026,-12.48391 -13.49691,-20.01786c-3.29864,-7.79928 -4.94797,-15.96989 -4.94797,-24.51183c0,-2.37398 0.127,-4.71797 0.382,-7.03495l-1.94699,-5.33496c-0.76799,4.03697 -1.15299,8.15994 -1.15299,12.36991c0,8.90894 1.72099,17.43288 5.16296,25.56982z" fill-opacity="0.6" fill="#af272f"></path><path d="M321.45167,227.14321c-6.06096,6.06096 -13.02091,10.75392 -20.88085,14.0789c-8.13794,3.44198 -16.66088,5.16196 -25.57082,5.16196c-2.51998,0 -5.00896,-0.137 -7.46695,-0.413l3.45898,-2.42698c1.32699,0.082 2.66298,0.123 4.00797,0.123c8.54194,0 16.71288,-1.64999 24.51283,-4.94797c7.53395,-3.18698 14.2059,-7.68595 20.01686,-13.49691c1.28399,-1.28399 2.50398,-2.60998 3.65997,-3.97797l4.64897,-1.49499c-1.92599,2.59798 -4.05497,5.06296 -6.38696,7.39395z" fill-opacity="0.6" fill="#af272f"></path></g></g></g></g></svg>