<svg xmlns:mydata="http://www.w3.org/2000/svg" mydata:contrastcolor="776E64" mydata:template="Default" mydata:presentation="2.5" mydata:layoutType="undefined" mydata:specialFontId="undefined" mydata:id1="315" mydata:id2="315" mydata:companyName="Juan Nava" mydata:companyTagline="" version="1.1" xmlns="http://www.w3.org/2000/svg" xmlns:xlink="http://www.w3.org/1999/xlink" width="550" height="940"><g fill="none" fill-rule="none" stroke="none" stroke-width="1" stroke-linecap="butt" stroke-linejoin="miter" stroke-miterlimit="10" stroke-dasharray="" stroke-dashoffset="0" font-family="none" font-weight="none" font-size="none" text-anchor="none" style="mix-blend-mode: normal"><g data-paper-data="{&quot;isGlobalGroup&quot;:true}"><g data-paper-data="{&quot;stacked&quot;:true,&quot;isPrimaryText&quot;:true}" fill="#000000" fill-rule="nonzero"><path d="M258.65255,219.36982c-0.69754,-0.31002 -1.39507,-0.77504 -1.9376,-1.31757c-1.31757,-1.16256 -2.09261,-2.63514 -2.40262,-4.26272c-0.23251,-1.31757 -1.31757,-2.32512 -2.71264,-2.32512h-6.12282c-0.77504,0 -1.47258,0.31002 -2.0151,0.85254c-0.54253,0.62003 -0.77504,1.39507 -0.69754,2.09261c0.46502,4.57274 2.24762,8.44794 5.58029,11.7031c2.32512,2.32512 5.19277,3.8752 8.52544,4.65024c0.23251,0.0775 0.46502,0.0775 0.69754,0.0775c0.54253,0 1.16256,-0.15501 1.62758,-0.54253c0.69754,-0.54253 1.08506,-1.31757 1.08506,-2.17011v-6.27782c0,-1.00755 -0.62003,-2.0151 -1.62758,-2.48013zM279.81114,173.33245h-5.8903c-1.47258,0 -2.71264,1.24006 -2.71264,2.71264v34.64429c0,2.94515 -0.46502,5.19277 -1.39507,6.66534c-0.69754,1.08506 -1.62758,1.8601 -2.94515,2.32512c-1.08506,0.38752 -1.78259,1.39507 -1.78259,2.55763v5.96781c0,0.85254 0.38752,1.62758 1.00755,2.09261c0.46502,0.46502 1.08506,0.62003 1.70509,0.62003c0.23251,0 0.38752,0 0.62003,-0.0775c4.10771,-0.93005 7.36288,-2.86765 9.7655,-5.8903c2.94515,-3.72019 4.41773,-8.44794 4.41773,-14.02822v-34.8768c0,-1.47258 -1.24006,-2.71264 -2.79014,-2.71264z" data-paper-data="{&quot;glyphName&quot;:&quot;J&quot;,&quot;glyphIndex&quot;:0,&quot;firstGlyphOfWord&quot;:true,&quot;word&quot;:1,&quot;line&quot;:1,&quot;firstGlyphOfFirstLine&quot;:true}"></path><path d="M314.68794,220.06736c-1.9376,-0.46502 -3.56518,-1.39507 -4.96026,-2.71264c-2.86765,-2.63514 -4.18522,-6.27782 -4.18522,-11.23808v-29.99405c0,-1.55008 -1.24006,-2.79014 -2.79014,-2.79014h-5.96781c-1.47258,0 -2.71264,1.24006 -2.71264,2.79014v29.83904c0,7.6729 2.32512,14.02822 6.97536,18.75597c3.41018,3.48768 7.51789,5.7353 12.40064,6.66534c0.15501,0.0775 0.31002,0.0775 0.54253,0.0775c0.62003,0 1.24006,-0.23251 1.70509,-0.62003c0.62003,-0.54253 1.00755,-1.31757 1.00755,-2.09261v-5.96781c0,-1.24006 -0.77504,-2.32512 -2.0151,-2.71264zM341.42682,173.33245h-5.8903c-1.55008,0 -2.79014,1.24006 -2.79014,2.79014v29.99405c0,4.96026 -1.31757,8.68045 -4.18522,11.23808c-1.39507,1.31757 -3.02266,2.17011 -4.96026,2.71264c-1.24006,0.38752 -2.0151,1.47258 -2.0151,2.63514v5.96781c0,0.85254 0.31002,1.62758 1.00755,2.17011c0.46502,0.38752 1.08506,0.62003 1.70509,0.62003c0.23251,0 0.38752,0 0.54253,-0.0775c4.88275,-0.93005 8.99046,-3.17766 12.40064,-6.66534c4.65024,-4.72774 6.97536,-11.08307 6.97536,-18.75597v-29.83904c0,-1.55008 -1.24006,-2.79014 -2.79014,-2.79014z" data-paper-data="{&quot;glyphName&quot;:&quot;U&quot;,&quot;glyphIndex&quot;:1,&quot;word&quot;:1,&quot;line&quot;:1}"></path><path d="M407.15021,227.04272l-22.08864,-52.00518c-0.46502,-1.08506 -1.39507,-1.70509 -2.48013,-1.70509h-7.44038c-1.08506,0 -2.09261,0.62003 -2.48013,1.70509l-15.73331,36.8919c-0.31002,0.85254 -0.23251,1.8601 0.23251,2.55763c0.54253,0.77504 1.39507,1.24006 2.32512,1.24006h6.51034c1.08506,0 2.09261,-0.62003 2.48013,-1.62758l10.38554,-24.80128l10.38554,24.80128l2.32512,5.58029h-36.11686c-1.08506,0 -2.09261,0.69754 -2.48013,1.70509l-2.40262,5.65779c-0.38752,0.85254 -0.31002,1.78259 0.23251,2.55763c0.46502,0.77504 1.31757,1.24006 2.24762,1.24006h51.61766c0.85254,0 1.70509,-0.46502 2.24762,-1.24006c0.46502,-0.77504 0.62003,-1.70509 0.23251,-2.55763z" data-paper-data="{&quot;glyphName&quot;:&quot;A&quot;,&quot;glyphIndex&quot;:2,&quot;word&quot;:1,&quot;line&quot;:1}"></path><path d="M461.55802,173.33245h-5.8903c-1.55008,0 -2.71264,1.24006 -2.71264,2.71264v35.34182l-27.2039,-36.96941c-0.46502,-0.69754 -1.31757,-1.08506 -2.17011,-1.08506h-6.82035c-1.00755,0 -1.9376,0.54253 -2.40262,1.47258c-0.46502,0.93005 -0.38752,2.0151 0.23251,2.86765l37.89946,51.92768c0.54253,0.69754 1.39507,1.08506 2.24762,1.08506h6.82035c1.47258,0 2.71264,-1.24006 2.71264,-2.71264v-51.92768c0,-1.47258 -1.24006,-2.71264 -2.71264,-2.71264zM422.65101,210.92189h-5.8903c-1.47258,0 -2.71264,1.16256 -2.71264,2.71264v14.33824c0,1.47258 1.24006,2.71264 2.71264,2.71264h5.8903c1.47258,0 2.71264,-1.24006 2.71264,-2.71264v-14.33824c0,-1.55008 -1.24006,-2.71264 -2.71264,-2.71264z" data-paper-data="{&quot;glyphName&quot;:&quot;N&quot;,&quot;glyphIndex&quot;:3,&quot;lastGlyphOfWord&quot;:true,&quot;word&quot;:1,&quot;line&quot;:1,&quot;lastGlyphOfFirstLine&quot;:true}"></path><path d="M289.05043,240.17009h-5.74038c-1.51063,0 -2.6436,1.2085 -2.6436,2.6436v34.44231l-26.51151,-36.02846c-0.45319,-0.67978 -1.28403,-1.05744 -2.11488,-1.05744h-6.64676c-0.98191,0 -1.88828,0.52872 -2.34147,1.4351c-0.45319,0.90638 -0.37766,1.96382 0.22659,2.79466l36.93484,50.60602c0.52872,0.67978 1.35956,1.05744 2.19041,1.05744h6.64676c1.4351,0 2.6436,-1.2085 2.6436,-2.6436v-50.60602c0,-1.4351 -1.2085,-2.6436 -2.6436,-2.6436zM251.13368,276.8028h-5.74038c-1.4351,0 -2.6436,1.13297 -2.6436,2.6436v13.9733c0,1.4351 1.2085,2.6436 2.6436,2.6436h5.74038c1.4351,0 2.6436,-1.2085 2.6436,-2.6436v-13.9733c0,-1.51063 -1.2085,-2.6436 -2.6436,-2.6436z" data-paper-data="{&quot;glyphName&quot;:&quot;N&quot;,&quot;glyphIndex&quot;:4,&quot;firstGlyphOfWord&quot;:true,&quot;word&quot;:2,&quot;line&quot;:2,&quot;firstGlyphOfSecondLine&quot;:true}"></path><path d="M353.62975,292.51333l-21.52644,-50.68155c-0.45319,-1.05744 -1.35956,-1.66169 -2.417,-1.66169h-7.25101c-1.05744,0 -2.03935,0.60425 -2.417,1.66169l-15.33287,35.95293c-0.30213,0.83085 -0.22659,1.81275 0.22659,2.49254c0.52872,0.75531 1.35956,1.2085 2.26594,1.2085h6.34464c1.05744,0 2.03935,-0.60425 2.417,-1.58616l10.1212,-24.17004l10.1212,24.17004l2.26594,5.43826h-35.19762c-1.05744,0 -2.03935,0.67978 -2.417,1.66169l-2.34147,5.51379c-0.37766,0.83085 -0.30213,1.73722 0.22659,2.49254c0.45319,0.75531 1.28403,1.2085 2.19041,1.2085h50.30389c0.83085,0 1.66169,-0.45319 2.19041,-1.2085c0.45319,-0.75531 0.60425,-1.66169 0.22659,-2.49254z" data-paper-data="{&quot;glyphName&quot;:&quot;A&quot;,&quot;glyphIndex&quot;:5,&quot;word&quot;:2,&quot;line&quot;:2}"></path><path d="M407.48362,241.37859c-0.45319,-0.75531 -1.28403,-1.2085 -2.19041,-1.2085h-6.34464c-1.13297,0 -2.11488,0.67978 -2.49254,1.66169l-15.18181,38.36994l-11.5563,-29.07958h12.68927c1.4351,0 2.6436,-1.2085 2.6436,-2.71913v-5.51379c0,-1.51063 -1.2085,-2.71913 -2.6436,-2.71913h-25.22748c-0.83085,0 -1.66169,0.45319 -2.19041,1.2085c-0.52872,0.75531 -0.60425,1.66169 -0.22659,2.49254l20.6956,51.13474c0.37766,1.05744 1.35956,1.66169 2.49254,1.66169h6.64676c1.05744,0 2.03935,-0.60425 2.49254,-1.66169l20.6956,-51.13474c0.30213,-0.83085 0.22659,-1.73722 -0.30213,-2.49254z" data-paper-data="{&quot;glyphName&quot;:&quot;V&quot;,&quot;glyphIndex&quot;:6,&quot;word&quot;:2,&quot;line&quot;:2}"></path><path d="M464.05662,292.51333l-21.52644,-50.68155c-0.45319,-1.05744 -1.35956,-1.66169 -2.417,-1.66169h-7.25101c-1.05744,0 -2.03935,0.60425 -2.417,1.66169l-15.33287,35.95293c-0.30213,0.83085 -0.22659,1.81275 0.22659,2.49254c0.52872,0.75531 1.35956,1.2085 2.26594,1.2085h6.34464c1.05744,0 2.03935,-0.60425 2.417,-1.58616l10.1212,-24.17004l10.1212,24.17004l2.26594,5.43826h-35.19762c-1.05744,0 -2.03935,0.67978 -2.417,1.66169l-2.34147,5.51379c-0.37766,0.83085 -0.30213,1.73722 0.22659,2.49254c0.45319,0.75531 1.28403,1.2085 2.19041,1.2085h50.30389c0.83085,0 1.66169,-0.45319 2.19041,-1.2085c0.45319,-0.75531 0.60425,-1.66169 0.22659,-2.49254z" data-paper-data="{&quot;glyphName&quot;:&quot;A&quot;,&quot;glyphIndex&quot;:7,&quot;lastGlyphOfWord&quot;:true,&quot;word&quot;:2,&quot;line&quot;:2,&quot;lastGlyphOfSecondLine&quot;:true}"></path></g><g data-paper-data="{&quot;isIcon&quot;:&quot;true&quot;,&quot;iconType&quot;:&quot;icon&quot;,&quot;rawIconId&quot;:&quot;2056033&quot;,&quot;selectedEffects&quot;:{&quot;container&quot;:&quot;&quot;,&quot;transformation&quot;:&quot;&quot;,&quot;pattern&quot;:&quot;&quot;},&quot;fillRule&quot;:&quot;evenodd&quot;,&quot;bounds&quot;:{&quot;x&quot;:85.72933798352844,&quot;y&quot;:170.56900924833604,&quot;width&quot;:123.08743626664068,&quot;height&quot;:128.86219254692827},&quot;iconStyle&quot;:&quot;standalone&quot;}" fill-rule="evenodd"><g data-paper-data="{&quot;isPathIcon&quot;:true}"><path d="M174.94211,170.56901c1.158,0 2.089,0.931 2.089,2.089c0,8.71001 -7.04801,15.75902 -15.75802,15.75902c4.35501,0 8.30701,1.762 11.10102,4.63201c2.845,2.844 4.60701,6.77101 4.60701,11.12602c0,1.158 -0.932,2.09 -2.09,2.09h-8.30701c-7.37501,0 -13.56802,-5.08501 -15.28002,-11.95802c-7.98001,1.184 -14.44902,6.54501 -17.34403,13.66902c1.359,-1.409 3.222,-2.19 5.16001,-2.19c0.957,0 1.913,0.177 2.82,0.579c3.67501,1.536 5.38701,5.76501 3.82601,9.44001l-1.963,4.63201c-2.065,4.88401 -6.54601,8.03101 -11.45402,8.66001v5.89001c0,11.35402 -9.21401,20.56703 -20.56703,20.56703c-5.68901,0 -10.82402,-2.291 -14.55002,-6.01601c-0.2266,-0.227 -0.4532,-0.454 -0.6797,-0.705c-0.3273,-0.378 -0.6545,-0.756 -0.9566,-1.133c-0.2014,-0.252 -0.3776,-0.504 -0.579,-0.78c-0.2014,-0.277 -0.3776,-0.554 -0.5538,-0.831c-0.1762,-0.277 -0.3272,-0.579 -0.5035,-0.856c-0.1006,-0.126 -0.1762,-0.277 -0.2517,-0.428c-0.151,-0.277 -0.3021,-0.579 -0.4531,-0.881c-0.1259,-0.302 -0.2769,-0.604 -0.4028,-0.906c-0.151,-0.302 -0.2517,-0.63 -0.3776,-0.932c-0.8055,-2.215 -1.2586,-4.58101 -1.2586,-7.07301c0,-0.554 0,-1.083 0.0251,-1.612c0,-0.201 0.0252,-0.402 0.0252,-0.604c0,-0.251 0,-0.478 0.0252,-0.73c0.0252,-0.251 0.0252,-0.503 0.0503,-0.755c0.0504,-0.705 0.1259,-1.435 0.2014,-2.14c0.1259,-1.007 0.2517,-2.013 0.428,-2.995c-4.30471,-2.971 -6.84721,-8.20701 -6.11711,-13.74502l0.6293,-4.98401c0.5286,-3.95201 4.12841,-6.72101 8.08061,-6.21801c2.618,0.327 4.70741,2.039 5.68941,4.28001c9.91801,-14.62602 26.96004,-23.99104 46.01707,-23.16003l5.05901,0.227c1.687,-6.89801 7.90501,-12.00802 15.30602,-12.00802zM108.81202,222.57709c-0.806,4.75801 -1.083,9.51501 -1.259,14.14702v0.353c0.101,2.366 2.089,4.20401 4.45601,4.10301c2.366,-0.101 4.20401,-2.089 4.10301,-4.45601c-0.176,-4.50601 -0.252,-8.91101 0.126,-13.21602c0.352,-4.30401 1.158,-8.48301 2.719,-12.36002c1.535,-3.85101 3.87601,-7.37501 6.87201,-10.37102c2.97,-3.021 6.62001,-5.46301 10.52202,-7.50201l0.051,-0.025c0.956,-0.503 1.384,-1.712 0.981,-2.668c-0.453,-1.083 -1.711,-1.586 -2.794,-1.133c-4.35501,1.863 -8.63401,4.20401 -12.36002,7.42601c-1.863,1.586 -3.60001,3.37301 -5.13501,5.33701c-1.536,1.963 -2.87,4.07801 -3.97801,6.31801c-2.215,4.45601 -3.52401,9.28901 -4.30401,14.04702z" fill="#4fa9d2"></path><path d="M202.98516,240.85311c-0.126,1.007 -0.252,2.014 -0.428,2.995c4.33001,2.971 6.84701,8.18201 6.14201,13.69502l-0.654,4.98401c-0.529,3.95201 -4.12901,6.72101 -8.08101,6.21801c-2.618,-0.327 -4.70701,-2.039 -5.68901,-4.28001c-9.89301,14.65102 -26.96104,24.01604 -46.01707,23.18503l-5.03401,-0.227c-1.687,6.89801 -7.90501,12.00802 -15.30602,12.00802h-8.30701c-1.158,0 -2.089,-0.931 -2.089,-2.089c0,-8.71001 7.04801,-15.75902 15.75802,-15.75902c-4.33001,0 -8.28201,-1.762 -11.12602,-4.60701c-2.845,-2.844 -4.60701,-6.77101 -4.60701,-11.12602c0,-1.158 0.931,-2.09 2.089,-2.09h8.30701c7.37601,0 13.56902,5.08501 15.28102,11.95802c7.97901,-1.183 14.44902,-6.54501 17.34403,-13.66902c-1.334,1.409 -3.222,2.19 -5.16101,2.19c-0.956,0 -1.913,-0.202 -2.819,-0.579c-3.67501,-1.536 -5.38701,-5.76501 -3.82601,-9.44001l1.963,-4.63201c2.064,-4.88401 6.54501,-8.03001 11.45402,-8.66001v-5.89001c0,-11.35302 9.21301,-20.56703 20.56703,-20.56703c5.68901,0 10.82402,2.291 14.55002,6.01701c0.226,0.226 0.453,0.453 0.679,0.704c0.328,0.378 0.655,0.756 0.957,1.133c0.201,0.252 0.378,0.504 0.579,0.781c0.201,0.277 0.378,0.553 0.554,0.83c0.176,0.277 0.327,0.579 0.503,0.856c0.101,0.126 0.176,0.277 0.252,0.428c0.151,0.277 0.302,0.579 0.453,0.881c0.151,0.302 0.277,0.604 0.403,0.906c0.151,0.303 0.252,0.63 0.377,0.932c0.806,2.215 1.259,4.58101 1.259,7.07401c0,0.553 0,1.082 -0.025,1.611c0,0.201 -0.025,0.402 -0.025,0.604c0,0.252 0,0.478 -0.025,0.73c-0.026,0.252 -0.026,0.503 -0.051,0.755c-0.05,0.705 -0.126,1.435 -0.201,2.14zM158.15109,276.72517c-0.956,0.503 -1.409,1.686 -0.956,2.718c0.453,1.083 1.711,1.586 2.794,1.133c4.35501,-1.863 8.63401,-4.20401 12.36002,-7.42601c1.863,-1.586 3.60001,-3.37301 5.13501,-5.33701c1.536,-1.963 2.87,-4.07801 3.97801,-6.31801c2.215,-4.45601 3.52401,-9.28901 4.30401,-14.04702c0.806,-4.75801 1.083,-9.51501 1.259,-14.14702c0,-0.126 0,-0.227 -0.025,-0.403c-0.101,-2.366 -2.09,-4.20401 -4.45601,-4.10301c-2.341,0.1 -4.20401,2.089 -4.10301,4.45501c0.176,4.50601 0.252,8.91201 -0.126,13.21602c-0.352,4.30501 -1.158,8.48401 -2.719,12.36002c-1.535,3.85201 -3.87601,7.37601 -6.87201,10.37202c-2.97,3.021 -6.62101,5.46201 -10.52202,7.50201z" fill="#f0dd5d"></path></g></g><path d="M222.38994,299.43099v-128.86198h2.01383v128.86198z" data-paper-data="{&quot;isShapeTextSeparator&quot;:true}" fill="#4fa9d2" fill-rule="nonzero"></path></g></g></svg>