<svg xmlns:mydata="http://www.w3.org/2000/svg" mydata:contrastcolor="B2A8A2" mydata:template="InvertedHex1" mydata:presentation="2.5" mydata:layoutType="undefined" mydata:specialFontId="undefined" mydata:id1="125" mydata:id2="125" mydata:companyName="Juan Nava" mydata:companyTagline="" version="1.1" xmlns="http://www.w3.org/2000/svg" xmlns:xlink="http://www.w3.org/1999/xlink" width="550" height="940"><g fill="#ac145a" fill-rule="none" stroke="none" stroke-width="1" stroke-linecap="butt" stroke-linejoin="miter" stroke-miterlimit="10" stroke-dasharray="" stroke-dashoffset="0" font-family="none" font-weight="none" font-size="none" text-anchor="none" style="mix-blend-mode: normal"><g data-paper-data="{&quot;isGlobalGroup&quot;:true}"><g data-paper-data="{&quot;isSecondaryText&quot;:true}" fill-rule="nonzero"><path d="M213.14283,322.75998l-6.67877,-10.48849v10.48849h-3.03367v-15.61515h3.45697l6.20843,10.04167v-10.04167h3.05718v15.61515z" data-paper-data="{&quot;glyphName&quot;:&quot;N&quot;,&quot;glyphIndex&quot;:0,&quot;firstGlyphOfWord&quot;:true,&quot;word&quot;:1}"></path><path d="M260.25215,310.64883h-0.02352l-1.99893,6.20843h3.97434zM264.13242,322.75998l-0.98771,-3.2218h-5.76161l-1.10529,3.2218h-3.45697l5.57348,-15.61515h3.7862l5.50293,15.61515z" data-paper-data="{&quot;glyphName&quot;:&quot;A&quot;,&quot;glyphIndex&quot;:1,&quot;word&quot;:1}"></path><path d="M297.90868,322.75998l-5.29128,-15.61515h3.48048l3.40993,10.95882l3.38642,-10.95882h3.38642l-5.29128,15.61515z" data-paper-data="{&quot;glyphName&quot;:&quot;V&quot;,&quot;glyphIndex&quot;:2,&quot;word&quot;:1}"></path><path d="M339.1383,310.64883h-0.02352l-1.99893,6.20843h3.97434zM343.01857,322.75998l-0.98771,-3.2218h-5.76161l-1.10529,3.2218h-3.45697l5.57348,-15.61515h3.7862l5.50293,15.61515z" data-paper-data="{&quot;glyphName&quot;:&quot;A&quot;,&quot;glyphIndex&quot;:3,&quot;lastGlyphOfWord&quot;:true,&quot;word&quot;:1}"></path></g><g data-paper-data="{&quot;isPrimaryText&quot;:true}" fill-rule="nonzero"><path d="M209.02953,242.09947h11.44092v39.91975c0,4.9934 -1.50899,9.01281 -4.52698,12.05823c-3.01799,3.04542 -7.4901,4.56814 -13.41633,4.56814c-5.32263,0 -9.46551,-1.41297 -12.42862,-4.2389c-2.96312,-2.82593 -4.44467,-7.06484 -4.44467,-12.7167v-5.597h10.3709v5.02083c0,2.7985 0.49385,4.86994 1.48156,6.21431c0.98771,1.34438 2.66132,2.01656 5.02083,2.01656c2.63388,0 4.37608,-0.64475 5.22661,-1.93426c0.85052,-1.2895 1.27579,-3.44325 1.27579,-6.46124z" data-paper-data="{&quot;glyphName&quot;:&quot;J&quot;,&quot;glyphIndex&quot;:0,&quot;firstGlyphOfWord&quot;:true,&quot;word&quot;:1}"></path><path d="M256.52168,242.09947h11.68784v36.46278c0,6.63957 -1.94797,11.64669 -5.84392,15.02135c-3.89595,3.37466 -9.43807,5.06199 -16.62637,5.06199c-6.63957,0 -11.89362,-1.5913 -15.76213,-4.77391c-3.86851,-3.18261 -5.80277,-8.06626 -5.80277,-14.65096v-37.12125h11.60554v36.05124c0,3.4021 0.85052,6.09085 2.55157,8.06626c1.70105,1.97541 4.11544,2.96312 7.24317,2.96312c7.29804,0 10.94707,-3.53928 10.94707,-10.61783z" data-paper-data="{&quot;glyphName&quot;:&quot;U&quot;,&quot;glyphIndex&quot;:1,&quot;word&quot;:1}"></path><path d="M291.66752,254.36348h-0.08231l-6.99624,21.72951h13.91018zM305.24847,296.75249l-3.45697,-11.2763h-20.16565l-3.86851,11.2763h-12.09939l19.50718,-54.65302h13.25171l19.26025,54.65302z" data-paper-data="{&quot;glyphName&quot;:&quot;A&quot;,&quot;glyphIndex&quot;:2,&quot;word&quot;:1}"></path><path d="M353.81064,296.75249l-23.37569,-36.70971v36.70971h-10.61783v-54.65302h12.09939l21.72951,35.14584v-35.14584h10.70014v54.65302z" data-paper-data="{&quot;glyphName&quot;:&quot;N&quot;,&quot;glyphIndex&quot;:3,&quot;lastGlyphOfWord&quot;:true,&quot;word&quot;:1}"></path></g><g data-paper-data="{&quot;fillRule&quot;:&quot;evenodd&quot;,&quot;isIcon&quot;:true,&quot;iconStyle&quot;:&quot;standalone&quot;,&quot;selectedEffects&quot;:{&quot;container&quot;:&quot;&quot;,&quot;transformation&quot;:&quot;&quot;,&quot;pattern&quot;:&quot;&quot;},&quot;bounds&quot;:{&quot;x&quot;:203.12561286253515,&quot;y&quot;:115,&quot;width&quot;:143.74877427492976,&quot;height&quot;:119.1517633850948},&quot;iconType&quot;:&quot;icon&quot;,&quot;rawIconId&quot;:&quot;871427&quot;}" fill-rule="evenodd"><path d="M223.01235,115l-10.23161,10.23161l36.08717,36.08717l-36.08717,36.08717l10.23161,10.23161l36.08717,-36.08717l10.36988,-10.23161l-10.36988,-10.23161zM337.21925,202.10696v16.03874h-63.87844v-16.03874z" data-paper-data="{&quot;isPathIcon&quot;:true}"></path></g><path d="M154.0482,348.69881v-177.79753c0,-1.73999 0.6152,-3.22519 1.8456,-4.45559c1.2304,-1.2304 2.7156,-1.8456 4.45559,-1.8456l69.01249,0l0.33541,3.94571h-69.3479c-1.57032,0 -2.35548,0.78516 -2.35548,2.35548v177.79753c0,1.57032 0.78516,2.35548 2.35548,2.35548h229.30123c1.57032,0 2.35548,-0.78516 2.35548,-2.35548v-177.79753c0,-1.57032 -0.78516,-2.35548 -2.35548,-2.35548h-117.8445l0.93276,-0.9202l1.47596,-1.45692l0.01818,-0.01731l0.06666,-0.06666l0.22767,-0.24325l0.21642,-0.25364l0.20257,-0.26316l0.19045,-0.27442l0.17573,-0.28221l0.09397,-0.16794h114.24414c1.73999,0 3.22519,0.6152 4.45559,1.8456c1.2304,1.2304 1.8456,2.7156 1.8456,4.45559v177.79753c0,1.73999 -0.6152,3.22519 -1.8456,4.45559c-1.2304,1.2304 -2.7156,1.8456 -4.45559,1.8456h-229.30123c-1.73999,0 -3.22519,-0.6152 -4.45559,-1.8456c-1.2304,-1.2304 -1.8456,-2.7156 -1.8456,-4.45559z" data-paper-data="{&quot;isLogoContainer&quot;:true}" fill-rule="nonzero"></path></g></g></svg>