<svg width="242" height="240" xmlns="http://www.w3.org/2000/svg">
 <!-- Created with Method Draw - http://github.com/duopixel/Method-Draw/ -->
 <g>
  <title>background</title>
  <rect fill="none" id="canvas_background" height="242" width="244" y="-1" x="-1"/>
 </g>
 <g>
  <title>Layer 1</title>
  <g id="svg_1" text-anchor="none" font-size="none" font-weight="none" font-family="none" stroke-dashoffset="0" stroke-miterlimit="10" fill-rule="none" fill="#ac145a">
   <g id="svg_14">
    <g id="svg_5" fill-rule="nonzero">
     <path id="svg_1" d="m59.09463,207.75998l-6.67877,-10.48849l0,10.48849l-3.03367,0l0,-15.61515l3.45697,0l6.20843,10.04167l0,-10.04167l3.05718,0l0,15.61515l-3.01014,0z"/>
     <path id="svg_2" d="m106.20395,195.64883l-0.02352,0l-1.99893,6.20843l3.97434,0l-1.95189,-6.20843zm3.88027,12.11115l-0.98771,-3.2218l-5.76161,0l-1.10529,3.2218l-3.45697,0l5.57348,-15.61515l3.7862,0l5.50293,15.61515l-3.55103,0z"/>
     <path id="svg_3" d="m143.86048,207.75998l-5.29128,-15.61515l3.48048,0l3.40993,10.95882l3.38642,-10.95882l3.38642,0l-5.29128,15.61515l-3.08069,0z"/>
     <path id="svg_4" d="m185.0901,195.64883l-0.02352,0l-1.99893,6.20843l3.97434,0l-1.95189,-6.20843zm3.88027,12.11115l-0.98771,-3.2218l-5.76161,0l-1.10529,3.2218l-3.45697,0l5.57348,-15.61515l3.7862,0l5.50293,15.61515l-3.55103,0z"/>
    </g>
    <g id="svg_10" fill-rule="nonzero">
     <path id="svg_6" d="m54.98133,127.09947l11.44092,0l0,39.91975c0,4.9934 -1.50899,9.01281 -4.52698,12.05823c-3.01799,3.04542 -7.4901,4.56814 -13.41633,4.56814c-5.32263,0 -9.46551,-1.41297 -12.42862,-4.2389c-2.96312,-2.82593 -4.44467,-7.06484 -4.44467,-12.7167l0,-5.597l10.3709,0l0,5.02083c0,2.7985 0.49385,4.86994 1.48156,6.21431c0.98771,1.34438 2.66132,2.01656 5.02083,2.01656c2.63388,0 4.37608,-0.64475 5.22661,-1.93426c0.85052,-1.2895 1.27579,-3.44325 1.27579,-6.46124l-0.00001,-38.84972z"/>
     <path id="svg_7" d="m102.47348,127.09947l11.68784,0l0,36.46278c0,6.63957 -1.94797,11.64669 -5.84392,15.02135c-3.89595,3.37466 -9.43807,5.06199 -16.62637,5.06199c-6.63957,0 -11.89362,-1.5913 -15.76213,-4.77391c-3.86851,-3.18261 -5.80277,-8.06626 -5.80277,-14.65096l0,-37.12125l11.60554,0l0,36.05124c0,3.4021 0.85052,6.09085 2.55157,8.06626c1.70105,1.97541 4.11544,2.96312 7.24317,2.96312c7.29804,0 10.94707,-3.53928 10.94707,-10.61783l0,-36.46279z"/>
     <path id="svg_8" d="m137.61932,139.36348l-0.08231,0l-6.99624,21.72951l13.91018,0l-6.83163,-21.72951zm13.58095,42.38901l-3.45697,-11.2763l-20.16565,0l-3.86851,11.2763l-12.09939,0l19.50718,-54.65302l13.25171,0l19.26025,54.65302l-12.42862,0z"/>
     <path id="svg_9" d="m199.76244,181.75249l-23.37569,-36.70971l0,36.70971l-10.61783,0l0,-54.65302l12.09939,0l21.72951,35.14584l0,-35.14584l10.70014,0l0,54.65302l-10.53552,0z"/>
    </g>
    <g id="svg_12" fill-rule="evenodd">
     <path id="svg_11" d="m68.96415,0l-10.23161,10.23161l36.08717,36.08717l-36.08717,36.08717l10.23161,10.23161l36.08717,-36.08717l10.36988,-10.23161l-10.36988,-10.23161l-36.08717,-36.08717zm114.2069,87.10696l0,16.03874l-63.87844,0l0,-16.03874l63.87844,0z"/>
    </g>
    <path id="svg_13" fill-rule="nonzero" d="m0,233.69881l0,-177.79753c0,-1.73999 0.6152,-3.22519 1.8456,-4.45559c1.2304,-1.2304 2.7156,-1.8456 4.45559,-1.8456l69.01249,0l0.33541,3.94571l-69.3479,0c-1.57032,0 -2.35548,0.78516 -2.35548,2.35548l0,177.79753c0,1.57032 0.78516,2.35548 2.35548,2.35548l229.30123,0c1.57032,0 2.35548,-0.78516 2.35548,-2.35548l0,-177.79753c0,-1.57032 -0.78516,-2.35548 -2.35548,-2.35548l-117.8445,0l0.93276,-0.9202l1.47596,-1.45692l0.01818,-0.01731l0.06666,-0.06666l0.22767,-0.24325l0.21642,-0.25364l0.20257,-0.26316l0.19045,-0.27442l0.17573,-0.28221l0.09397,-0.16794l114.24414,0c1.73999,0 3.22519,0.6152 4.45559,1.8456c1.2304,1.2304 1.8456,2.7156 1.8456,4.45559l0,177.79753c0,1.73999 -0.6152,3.22519 -1.8456,4.45559c-1.2304,1.2304 -2.7156,1.8456 -4.45559,1.8456l-229.30123,0c-1.73999,0 -3.22519,-0.6152 -4.45559,-1.8456c-1.2304,-1.2304 -1.8456,-2.7156 -1.8456,-4.45559l-0.00001,0z"/>
   </g>
  </g>
 </g>
</svg>